<?xml version="1.0" encoding="UTF-8" standalone="no"?>
<!DOCTYPE svg PUBLIC "-//W3C//DTD SVG 1.1//EN"
 "http://www.w3.org/Graphics/SVG/1.1/DTD/svg11.dtd">
<!-- Generated by graphviz version 14.1.3 (0)
 -->
<!-- Pages: 1 -->
<svg width="353pt" height="360pt"
 viewBox="0.00 0.00 353.00 360.00" xmlns="http://www.w3.org/2000/svg" xmlns:xlink="http://www.w3.org/1999/xlink">
<g id="graph0" class="graph" transform="scale(0.836371 0.836371) rotate(0) translate(4 426.43)">
<polygon fill="white" stroke="none" points="-4,4 -4,-426.43 417.58,-426.43 417.58,4 -4,4"/>
<!-- A -->
<g id="node1" class="node">
<title>A</title>
<ellipse fill="none" stroke="black" cx="164.58" cy="-393.44" rx="104.65" ry="28.99"/>
<text xml:space="preserve" text-anchor="middle" x="164.58" y="-396.64" font-family="Times New Roman,serif" font-size="14.00">Initial Clinical Database</text>
<text xml:space="preserve" text-anchor="middle" x="164.58" y="-380.14" font-family="Times New Roman,serif" font-size="14.00">(n = 1,357)</text>
</g>
<!-- B -->
<g id="node2" class="node">
<title>B</title>
<ellipse fill="none" stroke="black" cx="164.58" cy="-282.96" rx="105.71" ry="28.99"/>
<text xml:space="preserve" text-anchor="middle" x="164.58" y="-286.16" font-family="Times New Roman,serif" font-size="14.00">Post&#45;Duplicate Removal</text>
<text xml:space="preserve" text-anchor="middle" x="164.58" y="-269.66" font-family="Times New Roman,serif" font-size="14.00">(n = 1,356)</text>
</g>
<!-- A&#45;&gt;B -->
<g id="edge1" class="edge">
<title>A&#45;&gt;B</title>
<path fill="none" stroke="black" d="M164.58,-364.22C164.58,-351.89 164.58,-337.2 164.58,-323.78"/>
<polygon fill="black" stroke="black" points="168.08,-323.93 164.58,-313.93 161.08,-323.93 168.08,-323.93"/>
<text xml:space="preserve" text-anchor="middle" x="217.83" y="-333.15" font-family="Times New Roman,serif" font-size="14.00"> &#45;1 duplicate record</text>
</g>
<!-- C -->
<g id="node3" class="node">
<title>C</title>
<ellipse fill="none" stroke="black" cx="164.58" cy="-172.47" rx="164.58" ry="28.99"/>
<text xml:space="preserve" text-anchor="middle" x="164.58" y="-175.67" font-family="Times New Roman,serif" font-size="14.00">Adult Population Screening (≥18 years)</text>
<text xml:space="preserve" text-anchor="middle" x="164.58" y="-159.17" font-family="Times New Roman,serif" font-size="14.00">(n = 1,343)</text>
</g>
<!-- B&#45;&gt;C -->
<g id="edge2" class="edge">
<title>B&#45;&gt;C</title>
<path fill="none" stroke="black" d="M164.58,-253.74C164.58,-241.4 164.58,-226.72 164.58,-213.3"/>
<polygon fill="black" stroke="black" points="168.08,-213.44 164.58,-203.44 161.08,-213.44 168.08,-213.44"/>
<text xml:space="preserve" text-anchor="middle" x="222.7" y="-222.67" font-family="Times New Roman,serif" font-size="14.00"> &#45;13 minors excluded</text>
</g>
<!-- D -->
<g id="node4" class="node">
<title>D</title>
<ellipse fill="none" stroke="black" cx="164.58" cy="-28.99" rx="115.79" ry="28.99"/>
<text xml:space="preserve" text-anchor="middle" x="164.58" y="-32.19" font-family="Times New Roman,serif" font-size="14.00">Final Consolidated Sample</text>
<text xml:space="preserve" text-anchor="middle" x="164.58" y="-15.69" font-family="Times New Roman,serif" font-size="14.00">(n = 1,327)</text>
</g>
<!-- C&#45;&gt;D -->
<g id="edge3" class="edge">
<title>C&#45;&gt;D</title>
<path fill="none" stroke="black" d="M164.58,-143.18C164.58,-122.07 164.58,-92.96 164.58,-69.55"/>
<polygon fill="black" stroke="black" points="168.08,-69.75 164.58,-59.75 161.08,-69.75 168.08,-69.75"/>
<text xml:space="preserve" text-anchor="middle" x="289.08" y="-112.18" font-family="Times New Roman,serif" font-size="14.00">&#45;16 records excluded:</text>
<text xml:space="preserve" text-anchor="middle" x="289.08" y="-95.68" font-family="Times New Roman,serif" font-size="14.00">(1 Missing Health Scheme, 5 Weight &lt; 35kg,</text>
<text xml:space="preserve" text-anchor="middle" x="289.08" y="-79.18" font-family="Times New Roman,serif" font-size="14.00">10 Exclusive BMI &lt; 15kg/m²)</text>
</g>
</g>
</svg>